<?xml version="1.0" encoding="UTF-8"?>
<svg id="b" data-name="Capa 2" xmlns="http://www.w3.org/2000/svg" viewBox="0 0 94.81 246.29">
  <defs>
    <style>
      .d {
        fill: #b9b3d8;
      }
    </style>
  </defs>
  <g id="c" data-name="TEXTS">
    <g>
      <g>
        <polygon class="d" points="39.06 66.53 36.84 66.53 36.84 103.88 .44 66.45 .44 114.96 2.57 114.96 2.57 71.83 39.06 109.42 39.06 66.53"/>
        <rect class="d" x="23.7" y="112.75" width="15.51" height="2.22"/>
        <polygon class="d" points="81.08 62.02 86.46 52.99 84.01 52.99 78.63 62.02 81.08 62.02"/>
        <polygon class="d" points="78.63 52.99 76.17 52.99 70.79 62.02 73.24 62.02 78.63 52.99"/>
        <path class="d" d="M92.15,96.76c0,10.84-7.68,16.22-15.43,16.22s-15.51-5.46-15.51-16.38v-30.07h-2.22v29.76c0,12.66,8.94,18.99,17.81,18.99s17.57-6.17,17.57-18.36v-30.39h-2.22v30.23Z"/>
      </g>
      <g>
        <polygon class="d" points="0 9.5 17.33 9.5 17.33 48.43 19.63 48.43 19.63 9.42 36.8 9.42 36.8 7.28 0 7.28 0 9.5"/>
        <rect class="d" y="0" width="36.8" height="2.14"/>
        <polygon class="d" points="71.07 .16 50.09 48.59 52.31 48.59 72.41 2.69 92.43 48.59 94.81 48.59 73.75 .16 71.07 .16"/>
      </g>
      <g>
        <path class="d" d="M4.47,229.67l-.08-31.97h-2.3v48.43h26.67v-2.22h-10.13l-14.17-14.25ZM4.47,243.91v-10.76l10.6,10.76H4.47Z"/>
        <polygon class="d" points="71.66 197.85 68.97 197.85 48 246.29 50.21 246.29 70.31 200.39 90.34 246.29 92.71 246.29 71.66 197.85"/>
      </g>
      <g>
        <path class="d" d="M35.26,149.12c0-12.43-8.47-16.54-18.68-16.54H5.97v48.43h2.14l11.48-.08c13.85-.08,18.84-6.02,18.84-15.99,0-4.99-1.35-8.55-3.64-11.16.32-1.43.47-3.01.47-4.67ZM8.11,134.56h8.15c9.97,0,16.94,4.27,16.94,14.48,0,1.03-.08,2.06-.24,3.01-3.4-2.61-8.07-3.64-13.22-3.64h-11.63v-13.85ZM8.11,150.39h11.32c5.46,0,10.05,1.27,13.06,4.11-1.58,4.99-5.94,8.71-15.91,8.63l-8.47-.08v-12.66ZM36.37,164.87c0,7.44-3.72,14.17-16.62,14.09l-11.63-.08v-13.69l8.31-.08c10.05-.08,15.43-3.17,17.65-8.71,1.5,2.14,2.3,4.99,2.3,8.47Z"/>
        <rect class="d" x="58.6" y="153.24" width="27.62" height="2.14"/>
        <rect class="d" x="58.6" y="146.43" width="27.54" height="2.22"/>
        <rect class="d" x="58.6" y="132.19" width="29.44" height="2.22"/>
        <polygon class="d" points="85.9 159.41 58.6 159.41 58.6 161.63 58.64 161.63 85.9 161.63 85.9 159.41"/>
        <polygon class="d" points="60.85 161.71 58.64 161.63 58.64 178.41 58.6 178.41 58.6 180.62 58.64 180.62 58.64 180.65 88.79 180.65 88.79 180.62 88.83 180.62 88.83 178.41 60.85 178.41 60.85 161.71"/>
      </g>
    </g>
  </g>
</svg>