<?xml version="1.0" encoding="UTF-8"?>
<svg id="b" data-name="Capa 2" xmlns="http://www.w3.org/2000/svg" viewBox="0 0 93.54 14.14">
  <defs>
    <style>
      .d {
        fill: #fff;
      }
    </style>
  </defs>
  <g id="c" data-name="TEXTS">
    <g>
      <path class="d" d="M1.37,14.14c-.42,0-.83-.19-1.1-.55-.45-.61-.33-1.47.27-1.92L15.1.76c.42-.31.97-.36,1.44-.13.46.23.76.71.76,1.23v10.91c0,.76-.61,1.37-1.37,1.37s-1.37-.61-1.37-1.37V4.6L2.19,13.86c-.25.18-.54.27-.82.27Z"/>
      <path class="d" d="M35.27,14.08c-.33,0-.66-.12-.93-.36-.56-.51-.59-1.38-.08-1.94L44.68.44c.26-.28.63-.44,1.01-.44h0c.38,0,.75.16,1.01.45l9.7,10.61c.51.56.47,1.43-.09,1.94-.56.51-1.43.47-1.94-.09l-8.69-9.51-9.41,10.24c-.27.29-.64.44-1.01.44Z"/>
      <path class="d" d="M92.17,14.08h-4.31c-.76,0-1.37-.61-1.37-1.37V2.74h-8.17v9.97c0,.76-.61,1.37-1.37,1.37h-5.09c-.76,0-1.37-.61-1.37-1.37s.61-1.37,1.37-1.37h3.72V1.37c0-.76.61-1.37,1.37-1.37h10.91c.76,0,1.37.61,1.37,1.37v9.97h2.94c.76,0,1.37.61,1.37,1.37s-.61,1.37-1.37,1.37Z"/>
    </g>
  </g>
</svg>