<svg xmlns="http://www.w3.org/2000/svg" viewBox="0 0 32 32" role="img" aria-label="Tanúbela">

  <defs>
    <radialGradient id="sparkle-a" cx="50%" cy="45%" r="55%">
      <stop offset="0%" stop-color="#FFF4B8" />
      <stop offset="55%" stop-color="#FFD84D" />
      <stop offset="100%" stop-color="#E5A318" />
    </radialGradient>
    <radialGradient id="sparkle-b" cx="50%" cy="45%" r="55%">
      <stop offset="0%" stop-color="#FFF4B8" />
      <stop offset="55%" stop-color="#FFD84D" />
      <stop offset="100%" stop-color="#E5A318" />
    </radialGradient>
    <radialGradient id="sparkle-c" cx="50%" cy="45%" r="55%">
      <stop offset="0%" stop-color="#FFF4B8" />
      <stop offset="55%" stop-color="#FFD84D" />
      <stop offset="100%" stop-color="#E5A318" />
    </radialGradient>
  </defs>

  <!-- Grande, derecha -->
  <path
    fill="url(#sparkle-a)"
    d="M22 7
       C22.8 11.2 26.2 13.8 26.2 13.8
       C26.2 13.8 22.8 16.4 22 20.6
       C21.2 16.4 17.8 13.8 17.8 13.8
       C17.8 13.8 21.2 11.2 22 7Z"
  />

  <!-- Mediano, arriba izquierda -->
  <path
    fill="url(#sparkle-b)"
    d="M9.5 5.5
       C10 8.3 12.1 10 12.1 10
       C12.1 10 10 11.7 9.5 14.5
       C9 11.7 6.9 10 6.9 10
       C6.9 10 9 8.3 9.5 5.5Z"
  />

  <!-- Pequeño, abajo izquierda -->
  <path
    fill="url(#sparkle-c)"
    d="M8.5 20.5
       C8.85 22.3 10.2 23.4 10.2 23.4
       C10.2 23.4 8.85 24.5 8.5 26.3
       C8.15 24.5 6.8 23.4 6.8 23.4
       C6.8 23.4 8.15 22.3 8.5 20.5Z"
  />
</svg>
